<!DOCTYPE svg PUBLIC "-//W3C//DTD SVG 20010904//EN" "http://www.w3.org/TR/2001/REC-SVG-20010904/DTD/svg10.dtd">
<svg version="1.0" xmlns="http://www.w3.org/2000/svg" width="370px" height="82px" viewBox="0 0 3700 820" preserveAspectRatio="xMidYMid meet">
<g id="layer101" fill="#36d4c1" stroke="none">
<path d="M775 809 c-8 -12 11 -29 33 -29 7 0 12 -14 12 -38 l0 -37 -62 -12 c-67 -13 -86 -9 -67 13 18 22 1 30 -28 14 -30 -17 -46 -47 -20 -37 9 3 20 0 25 -6 7 -8 -5 -25 -40 -56 -45 -40 -51 -43 -75 -32 -21 10 -24 16 -20 41 9 41 -7 45 -37 9 -43 -51 -49 -113 -7 -75 19 17 21 17 51 0 21 -13 28 -23 24 -34 -4 -8 -12 -36 -17 -62 -8 -37 -15 -48 -30 -48 -10 0 -21 9 -24 20 -10 39 -33 14 -33 -35 0 -30 20 -43 32 -21 18 33 43 19 55 -31 5 -27 13 -55 17 -63 4 -11 -3 -21 -24 -34 -30 -17 -32 -17 -51 0 -38 35 -37 -20 2 -69 28 -37 50 -36 43 2 -5 25 -2 31 22 43 28 14 30 13 75 -33 29 -30 43 -52 39 -60 -5 -6 -15 -9 -24 -6 -27 11 -27 -11 0 -32 39 -31 74 -25 42 7 -25 25 5 33 68 19 58 -13 59 -14 62 -49 3 -32 0 -37 -20 -40 -13 -2 -23 -10 -23 -18 0 -12 13 -15 60 -15 47 0 60 3 60 15 0 8 -10 16 -22 18 -19 3 -23 10 -23 41 0 38 1 39 43 44 23 3 52 9 63 12 27 8 39 -18 22 -45 -19 -29 -3 -34 39 -13 45 24 59 57 20 48 -19 -5 -27 -2 -31 12 -4 14 6 32 38 65 43 45 43 45 70 29 22 -13 26 -21 22 -44 -5 -23 -3 -28 11 -25 21 4 63 64 63 89 0 22 -23 25 -39 5 -10 -12 -16 -12 -42 2 -19 12 -27 22 -23 32 4 8 12 36 17 63 11 49 25 61 34 27 12 -45 30 -12 24 44 -2 29 -11 33 -27 12 -17 -24 -18 -23 -31 34 -6 25 -13 52 -17 60 -4 10 4 21 26 33 28 16 33 16 40 3 12 -21 38 -21 38 0 0 33 -55 108 -71 98 -5 -2 -6 -18 -3 -33 5 -24 2 -31 -21 -42 -26 -13 -29 -12 -74 31 -44 42 -46 46 -33 68 8 12 23 22 33 22 25 0 24 15 -3 34 -38 27 -76 18 -47 -11 17 -17 -11 -55 -36 -48 -11 3 -39 8 -62 11 -42 7 -43 8 -43 45 0 31 4 38 23 41 12 2 22 10 22 18 0 19 -109 27 -120 9z m55 -178 c0 -26 -17 -36 -35 -21 -18 15 -8 40 16 40 12 0 19 -7 19 -19z m178 -48 c4 -26 -32 -66 -56 -61 -24 4 -27 46 -6 69 23 26 58 21 62 -8z m-304 -19 c25 -9 19 -43 -9 -56 -32 -14 -75 3 -75 31 0 27 44 40 84 25z m156 -64 c0 -5 -6 -10 -14 -10 -8 0 -18 5 -21 10 -3 6 3 10 14 10 12 0 21 -4 21 -10z m-110 -60 c0 -13 -37 -13 -45 0 -3 6 -3 15 0 20 7 12 45 -5 45 -20z m299 6 c9 -10 9 -16 1 -21 -16 -10 -40 2 -40 20 0 19 24 20 39 1z m-79 -51 c0 -8 -7 -15 -15 -15 -16 0 -20 12 -8 23 11 12 23 8 23 -8z m-330 -10 c0 -8 -4 -15 -9 -15 -13 0 -22 16 -14 24 11 11 23 6 23 -9z m224 -4 c16 -17 16 -20 0 -35 -21 -22 -73 -17 -88 7 -24 39 56 64 88 28z m164 -93 c5 -23 -35 -43 -54 -27 -13 10 -12 14 3 31 20 22 46 20 51 -4z m-327 -18 c27 -15 24 -40 -5 -40 -26 0 -51 24 -41 40 8 13 21 13 46 0z m167 -63 c4 -21 -25 -34 -40 -19 -8 8 -8 16 2 27 16 19 34 15 38 -8z"/>
<path d="M2122 748 c-11 -14 -8 -645 3 -656 4 -4 68 -7 143 -7 148 1 173 7 222 60 l25 27 0 246 0 247 -25 33 c-39 52 -74 62 -225 62 -94 0 -135 -4 -143 -12z m241 -125 c4 -2 7 -96 7 -209 l0 -204 -55 0 -55 0 0 199 c0 110 3 207 6 216 5 13 15 15 48 10 22 -4 44 -9 49 -12z"/>
</g>
<g id="layer102" fill="#ffffff" stroke="none">
<path d="M155 759 c-72 -10 -100 -23 -129 -62 l-26 -34 0 -234 c0 -230 0 -235 24 -269 36 -54 103 -81 200 -79 106 2 111 5 111 74 l0 60 -90 5 -90 5 -8 50 c-11 75 -1 323 14 341 10 12 30 15 93 12 l81 -3 3 56 c2 37 -2 59 -10 66 -18 14 -113 21 -173 12z"/>
<path d="M1423 748 c-16 -20 -136 -645 -127 -659 3 -5 31 -9 63 -9 43 0 62 5 73 18 8 10 26 89 42 192 15 96 32 207 38 245 l11 70 18 -130 c40 -305 52 -370 67 -382 21 -17 116 -17 130 0 8 9 4 49 -14 142 -75 396 -97 501 -106 512 -14 18 -182 18 -195 1z"/>
<path d="M1845 748 c-3 -7 -4 -159 -3 -338 l3 -325 61 -3 c43 -1 65 2 73 12 8 9 11 105 9 337 l-3 324 -68 3 c-48 2 -69 -1 -72 -10z"/>
<path d="M2122 748 c-6 -8 -9 -128 -7 -328 l3 -315 23 -13 c17 -9 58 -12 144 -9 129 4 160 14 205 62 l25 27 0 246 0 247 -25 33 c-39 52 -74 62 -225 62 -94 0 -135 -4 -143 -12z m241 -125 c4 -2 7 -96 7 -209 l0 -204 -55 0 -55 0 0 199 c0 110 3 207 6 216 5 13 15 15 48 10 22 -4 44 -9 49 -12z"/>
<path d="M3057 754 c-4 -4 -7 -115 -7 -246 0 -131 -3 -238 -6 -238 -3 0 -24 14 -45 31 -21 17 -43 28 -49 24 -5 -3 -10 -37 -10 -74 l0 -69 71 -51 c68 -50 73 -52 127 -49 l57 3 0 335 0 335 -65 3 c-36 2 -69 0 -73 -4z"/>
<path d="M3370 751 c-23 -6 -25 -11 -25 -71 0 -53 3 -64 15 -62 8 2 49 6 90 9 82 6 96 -1 100 -47 4 -48 3 -48 -58 -43 -73 7 -122 -14 -154 -66 -19 -31 -23 -53 -26 -146 -3 -100 -1 -114 21 -155 33 -61 89 -90 176 -90 86 0 144 28 171 81 18 35 20 59 20 266 l0 228 -32 39 c-17 21 -46 45 -64 52 -35 15 -188 18 -234 5z m179 -345 c8 -9 11 -43 10 -88 -3 -108 -4 -110 -53 -106 l-41 3 -3 75 c-4 99 2 118 36 123 15 2 30 5 33 6 4 0 12 -5 18 -13z"/>
<path d="M2634 487 c-3 -8 -4 -36 -2 -63 l3 -49 110 0 110 0 0 60 0 60 -108 3 c-85 2 -108 0 -113 -11z"/>
</g>


</svg>