<!DOCTYPE svg PUBLIC "-//W3C//DTD SVG 20010904//EN" "http://www.w3.org/TR/2001/REC-SVG-20010904/DTD/svg10.dtd">
<svg version="1.0" xmlns="http://www.w3.org/2000/svg" width="370px" height="82px" viewBox="0 0 3700 820" preserveAspectRatio="xMidYMid meet">
<g id="layer101" fill="#060808" stroke="none">
<path d="M102 747 c-18 -5 -48 -28 -68 -49 l-35 -39 3 -237 c3 -270 4 -272 88 -314 37 -19 61 -23 132 -22 108 0 120 8 116 78 l-3 51 -88 0 c-67 0 -90 4 -97 15 -5 8 -10 94 -10 191 0 220 -3 214 114 211 l86 -1 0 54 c0 43 -4 56 -19 65 -25 13 -176 11 -219 -3z"/>
<path d="M1428 746 c-8 -8 -20 -47 -27 -87 -24 -138 -91 -484 -101 -518 -5 -19 -7 -38 -4 -43 7 -12 132 -10 139 2 7 11 58 315 70 415 4 33 11 68 14 78 4 10 19 -76 35 -190 16 -115 33 -232 39 -260 l10 -53 67 0 c37 0 69 2 72 5 3 3 2 23 -3 43 -5 20 -20 100 -34 177 -55 298 -76 401 -85 423 -9 20 -16 22 -94 22 -59 0 -89 -4 -98 -14z"/>
<path d="M1847 754 c-4 -4 -7 -155 -7 -336 l0 -328 70 0 70 0 -2 332 -3 333 -60 3 c-34 2 -64 0 -68 -4z"/>
<path d="M2128 754 c-5 -4 -8 -155 -8 -336 l0 -329 153 3 c149 3 155 4 189 30 54 41 61 81 56 319 -5 302 -12 311 -243 317 -77 2 -143 0 -147 -4z m231 -123 c11 -7 14 -50 14 -211 0 -225 1 -222 -68 -218 l-40 3 -3 205 c-1 112 0 210 2 217 6 15 74 17 95 4z"/>
<path d="M3057 754 c-4 -4 -7 -115 -7 -246 0 -131 -3 -238 -7 -238 -3 0 -20 10 -37 23 -58 43 -56 45 -55 -40 l0 -78 59 -43 c57 -41 62 -43 122 -40 l63 3 0 330 0 330 -65 3 c-36 2 -69 0 -73 -4z"/>
<path d="M3368 748 c-26 -9 -28 -13 -28 -70 l0 -60 37 7 c57 10 153 7 169 -6 8 -6 14 -28 14 -49 l0 -38 -67 2 c-84 1 -125 -16 -152 -65 -18 -31 -21 -54 -21 -149 0 -94 3 -120 21 -154 26 -52 67 -76 143 -82 84 -7 141 12 180 60 l31 38 0 238 0 238 -31 39 c-20 24 -46 42 -70 50 -48 14 -189 15 -226 1z m176 -334 c13 -5 16 -24 16 -100 0 -92 -1 -95 -25 -104 -38 -15 -75 3 -76 37 -2 99 1 146 11 158 13 16 47 19 74 9z"/>
<path d="M2636 491 c-10 -16 -4 -106 8 -113 15 -10 188 -10 204 1 9 5 12 25 10 62 l-3 54 -107 3 c-60 1 -109 -1 -112 -7z"/>
</g>
<g id="layer102" fill="#36d4c1" stroke="none">
<path d="M775 809 c-8 -12 11 -29 33 -29 7 0 12 -14 12 -38 l0 -37 -62 -12 c-67 -13 -86 -9 -67 13 18 22 1 30 -28 14 -30 -17 -46 -47 -20 -37 9 3 20 0 25 -6 7 -8 -5 -25 -40 -56 -45 -40 -51 -43 -75 -32 -21 10 -24 16 -20 41 9 41 -7 45 -37 9 -43 -51 -49 -113 -7 -75 19 17 21 17 51 0 21 -13 28 -23 24 -34 -4 -8 -12 -36 -17 -62 -8 -37 -15 -48 -30 -48 -10 0 -21 9 -24 20 -10 39 -33 14 -33 -35 0 -30 20 -43 32 -21 18 33 43 19 55 -31 5 -27 13 -55 17 -63 4 -11 -3 -21 -24 -34 -30 -17 -32 -17 -51 0 -38 35 -37 -20 2 -69 28 -37 50 -36 43 2 -5 25 -2 31 22 43 28 14 30 13 75 -33 29 -30 43 -52 39 -60 -5 -6 -15 -9 -24 -6 -27 11 -27 -11 0 -32 39 -31 74 -25 42 7 -25 25 5 33 68 19 58 -13 59 -14 62 -49 3 -32 0 -37 -20 -40 -13 -2 -23 -10 -23 -18 0 -12 13 -15 60 -15 47 0 60 3 60 15 0 8 -10 16 -22 18 -19 3 -23 10 -23 41 0 38 1 39 43 44 23 3 52 9 63 12 27 8 39 -18 22 -45 -19 -29 -3 -34 39 -13 45 24 59 57 20 48 -19 -5 -27 -2 -31 12 -4 14 6 32 38 65 43 45 43 45 70 29 22 -13 26 -21 22 -44 -5 -23 -3 -28 11 -25 21 4 63 64 63 89 0 22 -23 25 -39 5 -10 -12 -16 -12 -42 2 -19 12 -27 22 -23 32 4 8 12 36 17 63 11 49 25 61 34 27 12 -45 30 -12 24 44 -2 29 -11 33 -27 12 -17 -24 -18 -23 -31 34 -6 25 -13 52 -17 60 -4 10 4 21 26 33 28 16 33 16 40 3 12 -21 38 -21 38 0 0 33 -55 108 -71 98 -5 -2 -6 -18 -3 -33 5 -24 2 -31 -21 -42 -26 -13 -29 -12 -74 31 -44 42 -46 46 -33 68 8 12 23 22 33 22 25 0 24 15 -3 34 -38 27 -76 18 -47 -11 17 -17 -11 -55 -36 -48 -11 3 -39 8 -62 11 -42 7 -43 8 -43 45 0 31 4 38 23 41 12 2 22 10 22 18 0 19 -109 27 -120 9z m55 -178 c0 -26 -17 -36 -35 -21 -18 15 -8 40 16 40 12 0 19 -7 19 -19z m178 -48 c4 -26 -32 -66 -56 -61 -24 4 -27 46 -6 69 23 26 58 21 62 -8z m-304 -19 c25 -9 19 -43 -9 -56 -32 -14 -75 3 -75 31 0 27 44 40 84 25z m156 -64 c0 -5 -6 -10 -14 -10 -8 0 -18 5 -21 10 -3 6 3 10 14 10 12 0 21 -4 21 -10z m-110 -60 c0 -13 -37 -13 -45 0 -3 6 -3 15 0 20 7 12 45 -5 45 -20z m299 6 c9 -10 9 -16 1 -21 -16 -10 -40 2 -40 20 0 19 24 20 39 1z m-79 -51 c0 -8 -7 -15 -15 -15 -16 0 -20 12 -8 23 11 12 23 8 23 -8z m-330 -10 c0 -8 -4 -15 -9 -15 -13 0 -22 16 -14 24 11 11 23 6 23 -9z m224 -4 c16 -17 16 -20 0 -35 -21 -22 -73 -17 -88 7 -24 39 56 64 88 28z m164 -93 c5 -23 -35 -43 -54 -27 -13 10 -12 14 3 31 20 22 46 20 51 -4z m-327 -18 c27 -15 24 -40 -5 -40 -26 0 -51 24 -41 40 8 13 21 13 46 0z m167 -63 c4 -21 -25 -34 -40 -19 -8 8 -8 16 2 27 16 19 34 15 38 -8z"/>
</g>


</svg>